<?xml version="1.0" encoding="UTF-8" standalone="no"?>
<svg
   viewBox="0 0 48.00119 45.95948"
   width="48.00119"
   height="45.95948"
   version="1.1"
   id="svg1"
   sodipodi:docname="icons8-home-no-white-space.svg"
   inkscape:version="1.4.2 (ebf0e940, 2025-05-08)"
   xmlns:inkscape="http://www.inkscape.org/namespaces/inkscape"
   xmlns:sodipodi="http://sodipodi.sourceforge.net/DTD/sodipodi-0.dtd"
   xmlns="http://www.w3.org/2000/svg"
   xmlns:svg="http://www.w3.org/2000/svg">
  <defs
     id="defs1" />
  <sodipodi:namedview
     id="namedview1"
     pagecolor="#ffffff"
     bordercolor="#000000"
     borderopacity="0.25"
     inkscape:showpageshadow="2"
     inkscape:pageopacity="0.0"
     inkscape:pagecheckerboard="0"
     inkscape:deskcolor="#d1d1d1"
     inkscape:zoom="7.81"
     inkscape:rotation="1"
     inkscape:cx="24.376884"
     inkscape:cy="24.610323"
     inkscape:window-width="1496"
     inkscape:window-height="628"
     inkscape:window-x="0"
     inkscape:window-y="33"
     inkscape:window-maximized="0"
     inkscape:current-layer="svg1" />
  <path
     d="M 23.963457,7.8054592e-4 A 1.0001,1.0001 0 0 0 23.385332,0.20976495 L 0.38533154,18.157031 a 1.0005659,1.0005659 0 0 0 1.23046876,1.578124 l 1.3847656,-1.080078 v 26.291016 a 1.0001,1.0001 0 0 0 1,1 H 17.832597 a 1.0001,1.0001 0 0 0 0.326172,0 h 11.673828 a 1.0001,1.0001 0 0 0 0.326172,0 h 13.841797 a 1.0001,1.0001 0 0 0 1,-1 V 18.655077 l 1.384766,1.080078 A 1.0005657,1.0005657 0 1 0 47.6158,18.157031 L 40.000566,12.215624 V 4.946093 h -6 V 7.5320305 L 24.6158,0.20976495 A 1.0001,1.0001 0 0 0 23.963457,7.8054592e-4 Z m 0.03711,2.26757805408 19,14.8261724 v 26.851562 h -12 v -19 h -14 v 19 H 5.0005659 V 17.094531 Z m 12,4.6777344 h 2 v 3.708984 l -2,-1.5625 z m -17,20 h 10 v 17 h -10 z"
     id="path1" />
</svg>
