<?xml version="1.0" encoding="UTF-8" standalone="no"?>
<svg
   viewBox="0 0 46 46"
   width="46"
   height="46"
   version="1.1"
   id="svg1"
   sodipodi:docname="icons8-plus.svg"
   inkscape:version="1.4.2 (ebf0e940, 2025-05-08)"
   xmlns:inkscape="http://www.inkscape.org/namespaces/inkscape"
   xmlns:sodipodi="http://sodipodi.sourceforge.net/DTD/sodipodi-0.dtd"
   xmlns="http://www.w3.org/2000/svg"
   xmlns:svg="http://www.w3.org/2000/svg">
  <defs
     id="defs1" />
  <sodipodi:namedview
     id="namedview1"
     pagecolor="#ffffff"
     bordercolor="#000000"
     borderopacity="0.25"
     inkscape:showpageshadow="2"
     inkscape:pageopacity="0.0"
     inkscape:pagecheckerboard="0"
     inkscape:deskcolor="#d1d1d1"
     inkscape:zoom="10.98"
     inkscape:cx="22.95082"
     inkscape:cy="22.905282"
     inkscape:window-width="1480"
     inkscape:window-height="858"
     inkscape:window-x="0"
     inkscape:window-y="33"
     inkscape:window-maximized="0"
     inkscape:current-layer="svg1" />
  <path
     d="M 23,0 C 10.309295,0 0,10.309295 0,23 0,35.690705 10.309295,46 23,46 35.690705,46 46,35.690705 46,23 46,10.309295 35.690705,0 23,0 Z m 0,2 C 34.609824,2 44,11.390176 44,23 44,34.609824 34.609824,44 23,44 11.390176,44 2,34.609824 2,23 2,11.390176 11.390176,2 23,2 Z m -1,9 V 22 H 11 v 2 h 11 v 11 h 2 V 24 H 35 V 22 H 24 V 11 Z"
     id="path1" />
</svg>
